# This file uses centimeters as units for non-parametric coordinates.

mtllib LillyPad.mtl
g default
v 0.415692 0.000000 -0.240000
v 0.240000 0.000000 -0.415692
v 0.000000 0.000000 -0.480000
v -0.240000 0.000000 -0.415692
v -0.415692 0.000000 -0.240000
v -0.480000 0.000000 0.000000
v -0.415692 0.000000 0.240000
v -0.240000 0.000000 0.415692
v 0.000000 0.000000 0.480000
v 0.240000 0.000000 0.415692
v 0.415692 0.000000 0.240000
v 0.480000 0.000000 0.000000
v 0.415692 0.100000 -0.240000
v 0.240000 0.100000 -0.415692
v 0.000000 0.100000 -0.480000
v -0.240000 0.100000 -0.415692
v -0.415692 0.100000 -0.240000
v -0.480000 0.100000 0.000000
v -0.415692 0.100000 0.240000
v -0.240000 0.100000 0.415692
v 0.000000 0.100000 0.480000
v 0.240000 0.100000 0.415692
v 0.415692 0.100000 0.240000
v 0.480000 0.100000 0.000000
v 0.000000 0.000000 0.000000
v 0.393278 0.100000 -0.227059
v 0.227059 0.100000 -0.393278
v 0.000000 0.100000 -0.454118
v -0.227059 0.100000 -0.393278
v -0.393278 0.100000 -0.227059
v -0.454118 0.100000 0.000000
v -0.393278 0.100000 0.227059
v -0.227059 0.100000 0.393278
v 0.000000 0.100000 0.454118
v 0.227059 0.100000 0.393278
v 0.393278 0.100000 0.227059
v 0.454118 0.100000 0.000000
v 0.393278 0.080000 -0.227059
v 0.227059 0.080000 -0.393278
v 0.000000 0.080000 -0.000000
v 0.000000 0.080000 -0.454118
v -0.227059 0.080000 -0.393278
v -0.393278 0.080000 -0.227059
v -0.454118 0.080000 0.000000
v -0.393278 0.080000 0.227059
v -0.227059 0.080000 0.393278
v 0.000000 0.080000 0.454118
v 0.227059 0.080000 0.393278
v 0.393278 0.080000 0.227059
v 0.454118 0.080000 -0.000000
v 0.415692 0.080000 0.240000
v 0.480000 0.080000 -0.000000
v 0.415692 0.080000 -0.240000
v 0.240000 0.080000 -0.415692
v 0.000000 0.080000 -0.480000
v -0.240000 0.080000 -0.415692
v -0.415692 0.080000 -0.240000
v -0.480000 0.080000 -0.000000
v -0.415692 0.080000 0.240000
v -0.240000 0.080000 0.415692
v 0.000000 0.080000 0.480000
v 0.240000 0.080000 0.415692
vt 0.309003 0.708389
vt 0.463504 0.708406
vt 0.437675 0.614427
vt 0.587928 0.600619
vt 0.618005 0.708422
vt 0.287448 0.600385
vt 0.772507 0.708438
vt 0.142346 0.559028
vt 0.000000 0.758103
vt 0.005618 0.490235
vt 0.154501 0.758119
vt 0.919220 0.600034
vt 0.309003 0.758135
vt 0.891626 0.451690
vt 0.463504 0.758152
vt 0.891737 0.300840
vt 0.618005 0.758168
vt 0.919511 0.152571
vt 0.000001 0.807926
vt 0.975365 0.010105
vt 0.000000 0.708357
vt 0.154501 0.708373
vt 0.733124 0.559444
vt 0.869879 0.490411
vt 0.345843 0.545516
vt 0.437752 0.586171
vt 0.199673 0.545516
vt 0.292712 0.572623
vt 0.152617 0.532709
vt 0.999990 0.728384
vt 0.946444 0.592314
vt 0.919763 0.449156
vt 0.919860 0.303517
vt 0.946660 0.160367
vt 0.995746 0.009552
vt 0.580855 0.807912
vt 0.722923 0.533043
vt 0.437756 0.598660
vt 0.585107 0.585105
vt 0.290423 0.584900
vt 0.148100 0.544380
vt 0.988394 0.732907
vt 0.934437 0.595745
vt 0.907331 0.450313
vt 0.907427 0.302372
vt 0.934625 0.156947
vt 0.988346 0.019630
vt 0.727448 0.544685
vt 0.859078 0.478288
vt 0.596947 0.758166
vt 0.154507 0.658628
vt 0.309008 0.658644
vt 0.463509 0.658660
vt 0.618011 0.658676
vt 0.772512 0.658692
vt 0.927013 0.658708
vt 0.154507 0.708374
vt 0.309008 0.708390
vt 0.463509 0.708406
vt 0.618011 0.708422
vt 0.772512 0.708439
vt 0.298474 0.758173
vt 0.963672 0.005549
vt 0.272758 0.272758
vt 0.907500 0.149157
vt 0.879302 0.299698
vt 0.879192 0.452849
vt 0.907240 0.603468
vt 0.000000 0.501460
vt 0.137836 0.570675
vt 0.285162 0.612665
vt 0.437683 0.626918
vt 0.590230 0.612895
vt 0.737650 0.571058
vt 0.879207 0.482106
vt 0.853502 0.467156
vt 0.073085 0.472431
vt 0.582807 0.572830
vt 0.000000 0.345843
vt 0.000000 0.199673
vt 0.073085 0.073085
vt 0.199673 0.000000
vt 0.345843 0.000000
vt 0.472431 0.073085
vt 0.545516 0.199673
vt 0.545516 0.345843
vt 0.472431 0.472431
vt 0.298475 0.807918
vt 0.016095 0.807925
vt 0.982718 0.000000
vt 0.875480 0.501593
vt 0.868453 0.469997
vt 1.000000 0.024139
vt 0.000005 0.658612
vt 0.596948 0.807911
vt 0.000000 0.758180
vt 0.772507 0.758184
vt 0.000005 0.708358
vt 0.927008 0.708454
vt 0.963678 0.747094
vt 0.975326 0.742550
vt 0.016299 0.478195
vt 0.021866 0.467004
vn 0.707107 0.000000 -0.707107
vn 0.707107 0.000000 -0.707107
vn 0.707107 0.000000 -0.707107
vn 0.707107 0.000000 -0.707107
vn 0.258819 0.000000 -0.965926
vn 0.258819 0.000000 -0.965926
vn 0.258819 0.000000 -0.965926
vn 0.258819 0.000000 -0.965926
vn -0.258819 0.000000 -0.965926
vn -0.258819 0.000000 -0.965926
vn -0.258819 0.000000 -0.965926
vn -0.258819 0.000000 -0.965926
vn -0.707107 0.000000 -0.707107
vn -0.707107 0.000000 -0.707107
vn -0.707107 0.000000 -0.707107
vn -0.707107 0.000000 -0.707107
vn -0.965926 0.000000 -0.258819
vn -0.965926 0.000000 -0.258819
vn -0.965926 0.000000 -0.258819
vn -0.965926 0.000000 -0.258819
vn -0.965926 0.000000 0.258819
vn -0.965926 0.000000 0.258819
vn -0.965926 -0.000000 0.258819
vn -0.965926 -0.000000 0.258819
vn -0.707107 0.000000 0.707107
vn -0.707107 0.000000 0.707107
vn -0.707107 0.000000 0.707107
vn -0.707107 0.000000 0.707107
vn -0.258819 0.000000 0.965926
vn -0.258819 0.000000 0.965926
vn -0.258819 0.000000 0.965926
vn -0.258819 0.000000 0.965926
vn 0.258819 0.000000 0.965926
vn 0.258819 0.000000 0.965926
vn 0.258819 0.000000 0.965926
vn 0.258819 0.000000 0.965926
vn 0.965926 0.000000 0.258819
vn 0.965926 0.000000 0.258819
vn 0.965926 0.000000 0.258819
vn 0.965926 0.000000 0.258819
vn 0.965926 0.000000 -0.258819
vn 0.965926 0.000000 -0.258819
vn 0.965926 0.000000 -0.258819
vn 0.965926 0.000000 -0.258819
vn 0.000000 1.000000 0.000000
vn 0.000000 1.000000 0.000000
vn 0.000000 1.000000 0.000000
vn 0.000000 1.000000 0.000000
vn 0.000000 1.000000 0.000000
vn 0.000000 1.000000 0.000000
vn 0.000000 1.000000 0.000000
vn 0.000000 1.000000 0.000000
vn 0.000000 1.000000 0.000000
vn 0.000000 1.000000 0.000000
vn 0.000000 1.000000 0.000000
vn 0.000000 1.000000 0.000000
vn 0.000000 1.000000 0.000000
vn 0.000000 1.000000 -0.000000
vn 0.000000 1.000000 0.000000
vn 0.000000 1.000000 0.000000
vn 0.000000 1.000000 -0.000000
vn 0.000000 1.000000 0.000000
vn 0.000000 1.000000 0.000000
vn 0.000000 1.000000 0.000000
vn 0.000000 1.000000 0.000000
vn 0.000000 1.000000 0.000000
vn 0.000000 1.000000 0.000000
vn 0.000000 1.000000 -0.000000
vn 0.000000 1.000000 -0.000000
vn 0.000000 1.000000 0.000000
vn 0.000000 1.000000 0.000000
vn 0.000000 1.000000 -0.000000
vn 0.000000 1.000000 -0.000000
vn 0.000000 1.000000 -0.000000
vn 0.000000 1.000000 -0.000000
vn 0.000000 1.000000 -0.000000
vn 0.000000 1.000000 -0.000000
vn 0.000000 1.000000 0.000000
vn 0.000000 1.000000 0.000000
vn 0.000000 1.000000 0.000000
vn 0.000000 1.000000 0.000000
vn -0.707107 0.000000 0.707107
vn -0.707107 0.000000 0.707107
vn -0.707107 0.000000 0.707107
vn -0.707107 0.000000 0.707107
vn -0.258819 0.000000 0.965926
vn -0.258819 0.000000 0.965926
vn -0.258819 0.000000 0.965926
vn -0.258819 0.000000 0.965926
vn 0.258819 0.000000 0.965926
vn 0.258819 0.000000 0.965926
vn 0.258819 0.000000 0.965926
vn 0.258819 0.000000 0.965926
vn 0.707107 0.000000 0.707107
vn 0.707107 0.000000 0.707107
vn 0.707107 0.000000 0.707107
vn 0.707107 0.000000 0.707107
vn 0.965926 0.000000 0.258819
vn 0.965926 0.000000 0.258819
vn 0.965926 0.000000 0.258819
vn 0.965926 0.000000 0.258819
vn 0.965926 -0.000000 -0.258819
vn 0.965926 -0.000000 -0.258819
vn 0.965926 -0.000000 -0.258819
vn 0.965926 -0.000000 -0.258819
vn 0.707107 0.000000 -0.707107
vn 0.707107 0.000000 -0.707107
vn 0.707107 0.000000 -0.707107
vn 0.707107 0.000000 -0.707107
vn 0.258819 0.000000 -0.965926
vn 0.258819 0.000000 -0.965926
vn 0.258819 0.000000 -0.965926
vn 0.258819 0.000000 -0.965926
vn -0.258819 0.000000 -0.965926
vn -0.258819 0.000000 -0.965926
vn -0.258819 0.000000 -0.965926
vn -0.258819 0.000000 -0.965926
vn -0.965926 0.000000 -0.258819
vn -0.965926 0.000000 -0.258819
vn -0.965926 0.000000 -0.258819
vn -0.965926 0.000000 -0.258819
vn -0.965926 -0.000000 0.258819
vn -0.965926 -0.000000 0.258819
vn -0.965926 -0.000000 0.258819
vn -0.965926 -0.000000 0.258819
vn -0.500000 0.000000 0.866025
vn -0.500000 0.000000 0.866025
vn -0.500000 0.000000 0.866025
vn -0.500000 0.000000 0.866025
vn 0.866025 0.000000 -0.500000
vn 0.866025 0.000000 -0.500000
vn 0.866025 0.000000 -0.500000
vn 0.866025 0.000000 -0.500000
vn 0.965926 0.000000 0.258819
vn 0.965926 0.000000 0.258819
vn 0.965926 -0.000000 -0.258819
vn 0.965926 -0.000000 -0.258819
vn 0.707107 0.000000 -0.707107
vn 0.707107 0.000000 -0.707107
vn 0.258819 0.000000 -0.965926
vn 0.258819 0.000000 -0.965926
vn -0.258819 0.000000 -0.965926
vn -0.258819 0.000000 -0.965926
vn -0.707107 0.000000 -0.707107
vn -0.707107 0.000000 -0.707107
vn -0.965926 0.000000 -0.258819
vn -0.965926 0.000000 -0.258819
vn -0.965926 0.000000 0.258819
vn -0.965926 0.000000 0.258819
vn -0.707107 0.000000 0.707107
vn -0.707107 0.000000 0.707107
vn -0.258819 0.000000 0.965926
vn -0.258819 0.000000 0.965926
vn 0.258819 0.000000 0.965926
vn 0.258819 0.000000 0.965926
vn 0.707107 0.000000 0.707107
vn 0.707107 0.000000 0.707107
vn -0.500000 0.000000 0.866025
vn 0.866025 0.000000 -0.500000
s 1
g LillyPad
usemtl initialShadingGroup
f 53/73/1 54/72/2 14/3/3 13/4/4
s 2
f 54/72/5 55/71/6 15/6/7 14/3/8
s 3
f 55/71/9 56/70/10 16/8/11 15/6/12
s 4
f 56/70/13 57/69/14 17/10/15 16/8/16
s 5
f 57/100/17 58/68/18 18/12/19 17/101/20
s 6
f 58/68/21 59/67/22 19/14/23 18/12/24
s 7
f 59/67/25 60/66/26 20/16/27 19/14/28
s 8
f 60/66/29 61/65/30 21/18/31 20/16/32
s 9
f 61/65/33 62/63/34 22/20/35 21/18/36
s 10
f 51/91/37 52/74/38 24/23/39 23/24/40
s 11
f 52/74/41 53/73/42 13/4/43 24/23/44
s 12
f 38/25/45 39/27/46 40/64/47
f 39/27/46 41/77/48 40/64/47
f 41/77/48 42/79/49 40/64/47
f 42/79/49 43/80/50 40/64/47
f 43/80/50 44/81/51 40/64/47
f 44/81/51 45/82/52 40/64/47
f 45/82/52 46/83/53 40/64/47
f 46/83/53 47/84/54 40/64/47
f 47/84/54 48/85/55 40/64/47
f 49/86/56 50/87/57 40/64/47
f 50/87/57 38/25/45 40/64/47
s 13
f 13/4/58 14/3/59 27/38/60 26/39/61
f 14/3/59 15/6/62 28/40/63 27/38/60
f 15/6/62 16/8/64 29/41/65 28/40/63
f 16/8/64 17/10/66 30/102/67 29/41/65
f 17/101/66 18/12/68 31/43/69 30/42/67
f 18/12/68 19/14/70 32/44/71 31/43/69
f 19/14/70 20/16/72 33/45/73 32/44/71
f 20/16/72 21/18/74 34/46/75 33/45/73
f 21/18/74 22/20/76 35/47/77 34/46/75
f 23/24/78 24/23/79 37/48/80 36/49/81
f 24/23/79 13/4/58 26/39/61 37/48/80
s off
f 26/39/82 27/38/83 39/26/84 38/78/85
f 27/38/86 28/40/87 41/28/88 39/26/89
f 28/40/90 29/41/91 42/29/92 41/28/93
f 29/41/94 30/102/95 43/103/96 42/29/97
f 30/42/98 31/43/99 44/31/100 43/30/101
f 31/43/102 32/44/103 45/32/104 44/31/105
f 32/44/106 33/45/107 46/33/108 45/32/109
f 33/45/110 34/46/111 47/34/112 46/33/113
f 34/46/114 35/47/115 48/93/116 47/34/117
f 36/49/118 37/48/119 50/37/120 49/76/121
f 37/48/122 26/39/123 38/78/124 50/37/125
s 14
f 49/92/126 51/75/127 23/24/128 36/49/129
f 22/20/130 62/90/131 48/35/132 35/47/133
s 10
f 11/94/134 12/51/135 52/22/38 51/21/37
s 11
f 12/51/136 1/52/137 53/1/42 52/22/41
s 1
f 1/52/138 2/53/139 54/2/2 53/1/1
s 2
f 2/53/140 3/54/141 55/5/6 54/2/5
s 3
f 3/54/142 4/55/143 56/7/10 55/5/9
s 4
f 4/55/144 5/56/145 57/99/14 56/7/13
s 5
f 5/98/146 6/57/147 58/11/18 57/9/17
s 6
f 6/57/148 7/58/149 59/13/22 58/11/21
s 7
f 7/58/150 8/59/151 60/15/26 59/13/25
s 8
f 8/59/152 9/60/153 61/17/30 60/15/29
s 9
f 9/60/154 10/61/155 62/97/34 61/17/33
s 14
f 40/88/156 25/62/157 11/50/158 51/95/127 49/36/126
f 48/89/132 62/19/131 10/96/159 25/62/157 40/88/156
